# xmcd CD database file
#
# Track frame offsets:
#	150
#	16981
#	35123
#	53432
#	72031
#	84360
#	107603
#	123393
#	139790
#	155641
#	170247
#	188913
#
# Disc length: 2807 seconds
#
# Revision: 3
# Processed by: cddbd v1.5.1PL0 Copyright (c) Steve Scherf et al.
# Submitted via: CDex 1.51
#
DISCID=9e0af50c
DTITLE=Michael Haughton - Worship Him on the Saxophone
DYEAR=1998
DGENRE=Jazz
TTITLE0=Jesus Christ (Once again)
TTITLE1=I long for You
TTITLE2=To be in Your presence (My desire)
TTITLE3=I will offer up my life
TTITLE4=How long, O Lord?
TTITLE5=When peace like a river
TTITLE6=Once again (Satisfy me)
TTITLE7=There's a wideness
TTITLE8=I draw near
TTITLE9=You are beautiful beyond description
TTITLE10=He paid the price
TTITLE11=Holy, holy, holy
EXTD=YEAR: 1998
EXTT0=
EXTT1=
EXTT2=
EXTT3=
EXTT4=
EXTT5=
EXTT6=
EXTT7=
EXTT8=
EXTT9=
EXTT10=
EXTT11=
PLAYORDER=
